# xmcd CD database file
#
# Track frame offsets:
#	150
#	4667
#	20112
#	42017
#	59700
#	79497
#	100322
#	125847
#	146765
#	166522
#	182082
#
# Disc length: 2720 seconds
#
# Revision: 0
# Processed by: cddbd v1.5.1PL0 Copyright (c) Steve Scherf et al.
# Submitted via: CDex 1.50
#
DISCID=970a9e0b
DTITLE=THE BELL'S - Hello! Hello! Hello!
DYEAR=1990
DGENRE=Rock
TTITLE0=THE BELL'S OVERDRIVE
TTITLE1=HELLO! HELLO! HELLO!
TTITLE2=口笛吹いて…(Never stop)
TTITLE3=あの夏の日
TTITLE4=ANSWER“A”
TTITLE5=KING and QUEEN
TTITLE6=虹がそこに
TTITLE7=彼は思う
TTITLE8=THE ACTION(風を受けて)
TTITLE9=踊り明かそう！街はPARADISE
TTITLE10=彼は思う?
EXTD=YEAR: 1990/10
EXTT0=
EXTT1=
EXTT2=
EXTT3=
EXTT4=
EXTT5=
EXTT6=
EXTT7=
EXTT8=
EXTT9=
EXTT10=
PLAYORDER=
